<?xml version="1.0" encoding="UTF-8"?>
<svg width="1440px" height="772px" viewBox="0 0 1440 772" version="1.1" xmlns="http://www.w3.org/2000/svg" xmlns:xlink="http://www.w3.org/1999/xlink">
    <!-- Generator: Sketch 53 (72520) - https://sketchapp.com -->
    <title>Group 13</title>
    <desc>Created with Sketch.</desc>
    <defs>
        <linearGradient x1="50%" y1="100%" x2="50%" y2="-2.48949813e-15%" id="linearGradient-1">
            <stop stop-color="#FFFFFF" stop-opacity="0" offset="0%"></stop>
            <stop stop-color="#C3DFFC" offset="100%"></stop>
        </linearGradient>
        <linearGradient x1="50%" y1="0%" x2="50%" y2="100%" id="linearGradient-2">
            <stop stop-color="#FFFFFF" stop-opacity="0" offset="0%"></stop>
            <stop stop-color="#F1F8FF" offset="100%"></stop>
        </linearGradient>
    </defs>
    <g id="Daneb_Dashboard" stroke="none" stroke-width="1" fill="none" fill-rule="evenodd" opacity="0.900000036">
        <g id="Dario_landngpage-Copy">
            <g id="Group-13" transform="translate(0.000000, -0.335777)">
                <path d="M0,0.335776779 L666.448568,0.335776779 C802.909263,118.658063 837.836003,249.73758 771.228786,393.574329 C671.317962,609.329452 517.177628,423.906163 417.385563,643.128938 C350.857519,789.277454 211.728998,811.442273 0,709.623395 L0,0.335776779 Z" id="wave" fill="url(#linearGradient-1)"></path>
                <path d="M748.5,0.124896298 C778,-0.085984183 844.5,0.335776779 879,0.335776779 C934.124278,0.335776779 1015.79094,0.335776779 1124,0.335776779 C1181.66667,0.335776779 1228.83333,0.335776779 1265.5,0.335776779 C1281.32517,0.335776779 1336.36414,1.8952601 1351.5,0.335776779 C1357.10323,-0.241537173 1387.24118,1.01703722 1411,0.335776779 C1426.61353,-0.111925593 1440,-0.111925593 1440,0.335776779 C1440,35.1995382 1440,95.75606 1440,124.335777 C1440,159.075145 1440.32381,235.619471 1440,320.835777 C1439.85309,359.496896 1440,400.807388 1440,439.335777 C1440,578.864788 1344.60571,699.276973 1259.64715,708.00712 C1096.86459,724.734282 712.985849,580.683948 594.68725,435.865325 C512.789276,335.607571 544.815676,144.440531 626,0.335776779 C626.187208,0.338836771 626.680018,0.335776779 627,0.335776779 C627.5,0.335776779 658.369862,0.0520991914 667,0.124896298 C692,0.335776779 719,0.335776779 748.5,0.124896298 Z" id="Rectangle-3-Copy-2" fill="url(#linearGradient-2)"></path>
            </g>
        </g>
    </g>
</svg>