<?xml version="1.0" encoding="UTF-8"?>
<svg width="1440px" height="725px" viewBox="0 0 1440 725" version="1.1" xmlns="http://www.w3.org/2000/svg" xmlns:xlink="http://www.w3.org/1999/xlink">
    <!-- Generator: Sketch 53 (72520) - https://sketchapp.com -->
    <title>Group 2</title>
    <desc>Created with Sketch.</desc>
    <defs>
        <polygon id="path-1" points="0 0.5 693 0.5 693 639.5 0 639.5"></polygon>
        <linearGradient x1="50%" y1="100%" x2="50%" y2="3.061617e-15%" id="linearGradient-3">
            <stop stop-color="#F6FAFF" offset="0%"></stop>
            <stop stop-color="#F6FAFF" offset="100%"></stop>
        </linearGradient>
        <linearGradient x1="50%" y1="0%" x2="50%" y2="100%" id="linearGradient-4">
            <stop stop-color="#FFFFFF" stop-opacity="0" offset="0%"></stop>
            <stop stop-color="#F1F8FF" offset="100%"></stop>
        </linearGradient>
    </defs>
    <g id="Daneb_Dashboard" stroke="none" stroke-width="1" fill="none" fill-rule="evenodd">
        <g id="Dario_landngpage-Copy" transform="translate(0.000000, -1391.000000)">
            <g id="Group-2" transform="translate(-0.000000, 1391.374515)">
                <g id="Group-3" transform="translate(747.000000, 84.625485)">
                    <mask id="mask-2" fill="white">
                        <use xlink:href="#path-1"></use>
                    </mask>
                    <g id="Clip-2"></g>
                    <path d="M54.1414167,17.4599655 C-26.077202,62.1491144 -4.22539367,131.392492 36.8970194,159.002325 C95.1509491,198.119712 126.795152,176.274031 106.452181,284.455609 C99.5457683,321.185099 106.883009,362.003816 132.962197,389.881485 C151.721076,409.931528 179.408813,421.735212 206.752264,419.700029 C221.96481,418.568324 236.569682,413.40209 251.595975,410.785965 C266.624149,408.166068 283.179975,408.432019 295.752996,417.091449 C307.861324,425.428343 314.090454,440.055632 317.313196,454.424514 C325.064332,488.984903 318.408138,525.801156 329.293593,559.761741 C338.468907,588.386335 359.825922,617.176914 387.287897,630.180205 C423.236615,647.202936 465.668443,637.809784 501.863617,626.541773 C544.31614,613.329116 583.858224,591.330655 618.523865,563.545408 C662.932986,527.947624 699.444225,483.043451 728.569309,434.087774 C754.49987,390.507696 774.908688,343.057186 783.201652,292.998097 C796.314618,213.824007 778.291344,99.5689441 684.511999,81.7238406 C571.614439,60.2403051 556.834602,171.515211 516.048949,77.7515556 C491.642276,21.6453883 409.126536,-44.2273942 314.304927,42.3008928 C219.485199,128.82918 169.665333,-46.9001045 54.1414167,17.4599655" id="Fill-1" fill="url(#linearGradient-3)" mask="url(#mask-2)"></path>
                </g>
                <path d="M0.252273376,2.44426701e-12 C115.853513,2.44426701e-12 348.166208,111.623162 340.830349,159.665263 C332.385527,214.969891 298.125563,444.502514 214.61251,453.083453 C165.665982,458.112694 1.14885403,399.701731 1.14885403,399.701731 C1.14885403,399.701731 -4.01545476e-13,162.896582 8.01352784e-13,69.765047 C1.38801339e-12,24.765047 -2.27345958e-13,7.36689845 -2.27373675e-13,6.76504698 C-2.27373675e-13,4.26504698 -2.27373675e-13,2.44426701e-12 0.252273376,2.44426701e-12 Z" id="Rectangle-3-Copy" fill="url(#linearGradient-4)" opacity="0.900000036" transform="translate(170.500033, 226.695266) scale(1, -1) translate(-170.500033, -226.695266) "></path>
            </g>
        </g>
    </g>
</svg>